# xmcd CD database file
#
# Track frame offsets:
#	150
#	22365
#	40892
#	56347
#	71945
#	89795
#	104997
#	119042
#	132540
#	154442
#	168865
#	185802
#	200920
#	222137
#
# Disc length: 3295 seconds
#
# Revision: 9
# Processed by: cddbd v1.5.2PL0 Copyright (c) Steve Scherf et al.
# Submitted via: CDex 1.70beta3
#
DISCID=f00cdd0e
DTITLE=GODIEGO - GODIEGO disk1
DYEAR=1990
DGENRE=Pop
TTITLE0=THE BIRTH OF ODYSSEY～MONKEY MAGIC
TTITLE1=ガンダーラ
TTITLE2=ビューティフル・ネーム
TTITLE3=銀河鉄道999
TTITLE4=ホーリー＆ブライト
TTITLE5=ハピネス
TTITLE6=ドキ・ドキ・サマーガール
TTITLE7=SALAD GIRL
TTITLE8=IF YOU ARE PASSING BY THAT WAY
TTITLE9=MIRAGE
TTITLE10=TRY TO WAKE UP TO A MORNING
TTITLE11=CHERRIES WERE MADE FOR EATING
TTITLE12=CELEBRATION
TTITLE13=LYENA
EXTD=YEAR: 1990
EXTT0=
EXTT1=
EXTT2=
EXTT3=
EXTT4=
EXTT5=
EXTT6=
EXTT7=
EXTT8=
EXTT9=
EXTT10=
EXTT11=
EXTT12=
EXTT13=
PLAYORDER=
